<svg data-root-id="6951879507773" viewBox="0 0 122 140" xmlns="http://www.w3.org/2000/svg" fill="none" zoom="1" editortype="buyer" data-layer-role="icon">
  <path fill-rule="evenodd" clip-rule="evenodd" d="M60.543 0L121.256 34.8497L121.425 104.85L60.8955 140L0.18289 105.15L0 35.1502L60.543 0ZM60.5572 5.78373L5.01654 38.0297L5.18432 102.246L60.8809 134.216L116.409 101.97L116.254 37.7541L60.5572 5.78373Z" fill="url(#paint0_linear_23379_4055)" name="Layer %{number}" zoom="1" data-layer-id="5445109507773" style="fill: rgb(250, 170, 22); fill-opacity: 1;"></path>
  <path fill-rule="evenodd" clip-rule="evenodd" d="M51.7593 26.3984L47.3264 28.9781L47.3389 34.1123L51.7844 36.6544L56.2174 34.0873L56.2048 28.953L51.7593 26.3984ZM69.5416 36.6163L73.9746 34.0367L78.4201 36.5913L78.4326 41.7255L73.9996 44.2926L69.5541 41.738L69.5416 36.6163ZM60.6755 41.763L60.6755 41.763L60.6629 36.6426L56.2175 34.088L51.7845 36.6551L51.797 41.7894L56.2425 44.344L56.2426 44.3439V49.4643L56.2494 49.4682L51.8224 52.0319L51.8224 52.0337L47.3771 49.4917L42.9441 52.0588L42.9566 57.1913L42.9563 57.1911L38.5233 59.7582L38.5356 64.7927L38.5355 64.7926L34.09 67.3472L34.0897 67.4645L29.6573 64.9174L25.2243 67.4845L25.2368 72.6187L29.6823 75.1608L34.1153 72.5937L34.115 72.5032L38.5104 75.0486L42.9436 72.5011L42.9435 72.5325L47.3765 75.0996L47.389 75.0925L47.3765 80.2077L51.8095 82.7748L56.255 80.2203L56.2675 75.0985L51.8346 72.5189L51.822 72.5261L51.8345 67.4233L47.4143 64.8636L47.4018 59.7474L47.4021 59.7476L51.8351 57.168L51.8351 57.1662L56.2804 59.7207L60.7134 57.1411L60.7008 52.0194L60.4958 51.9016L60.7006 52.0189L65.1335 49.4518L65.121 44.3176L60.6755 41.763ZM34.078 57.2172L29.645 59.7843L25.1995 57.2423L25.187 52.108L29.62 49.5284L34.0655 52.083L34.078 57.2172ZM25.1869 57.2417L20.7539 59.8088L16.3084 57.2542L16.2959 52.1325L20.7289 49.5528L25.1743 52.1074L25.1869 57.2417ZM60.7134 57.1422L56.2805 59.7218L56.293 64.856L60.7385 67.3981L65.1715 64.831L65.1715 64.8295L69.5792 67.359L74.0247 64.8044L74.0372 59.6701L69.6042 57.103L65.1587 59.6952L65.1587 59.6966L60.7134 57.1422ZM82.8907 49.4012L78.4578 51.9683L78.4703 57.1025L82.9158 59.6571L87.3487 57.0775L87.3362 51.9558L82.8907 49.4012ZM82.9159 59.6582L87.3488 57.0786L91.7941 59.633L96.2393 57.0786L100.672 59.6582L100.66 64.7799L96.2142 67.3345L91.7941 64.7623L87.3739 67.3345L87.2227 67.2476L87.3738 67.3356L87.3613 72.4573L82.9158 75.0119L78.4828 72.4448L78.4954 67.3105L82.9283 64.7631L82.9159 59.6582ZM42.9308 82.7515L38.4979 80.1718L34.0524 82.7264L34.0278 87.7759L34.0401 82.7243L29.6071 80.1572L25.1616 82.7117L25.1491 87.8335L29.5821 90.4131L34.0274 87.8586L34.0273 87.8606L38.4728 90.4278L42.9183 87.8857L42.9308 82.7515ZM69.5541 82.8115L65.1337 80.2444V75.1102L69.5917 72.5556L74.0246 75.1352L74.0121 80.2695L69.5541 82.8115ZM69.5541 87.9446L69.5665 82.8248L65.1336 80.2452L60.6881 82.7998L60.6756 87.9215L65.1006 90.4965L65.0997 90.4971L60.6755 87.9226L56.23 90.4772L56.2175 95.5989L60.6502 98.1783L60.6377 103.298L65.0706 105.878L69.5161 103.323L69.5286 98.2016L69.5217 98.1975L73.9745 95.6459L73.987 90.5117L69.5541 87.9446ZM78.3948 103.347L82.8278 105.914L87.2732 103.372L87.2858 98.238L82.8528 95.6709L78.4073 98.213L78.3948 103.347ZM91.7439 90.5623L87.311 87.9826L87.3235 82.8609L91.769 80.3063L91.7691 80.3064L91.7816 75.186L96.2271 72.6314L100.66 75.1985L100.648 80.3328L96.202 82.8873L96.202 82.8873V82.8877L100.647 80.3333L105.08 82.9004L105.068 88.0346L100.622 90.5892L96.1892 88.0096L96.1892 88.0078L91.7439 90.5623ZM25.149 87.8345L29.582 90.4142L29.5695 95.5359L25.124 98.0904L20.691 95.5108L20.7035 90.3891L25.149 87.8345ZM51.7724 98.2407L47.3394 95.6611L42.894 98.2157L42.8689 103.337L47.3144 105.917L51.7599 103.362L51.7724 98.2407ZM73.9367 111.025L78.3697 113.604L82.8152 111.05L82.8277 105.915L78.3947 103.348L73.9367 105.903V111.025ZM96.2647 51.9578L91.8192 49.3781L91.8317 44.2564L96.2897 41.7018L100.723 44.2815L100.71 49.4032L96.2647 51.9578Z" fill="url(#paint1_linear_23379_4055)" name="Layer %{number}" zoom="1" data-layer-id="3703558407773" style="fill: rgb(250, 170, 22); fill-opacity: 1;"></path>
  <path opacity="0.7" fill-rule="evenodd" clip-rule="evenodd" d="M69.5539 41.7344L65.1209 44.314L65.1334 49.4482L69.5789 51.9903L74.0119 49.4232L73.9994 44.289L69.5539 41.7344ZM42.9435 52.0536L47.3765 49.4865L47.3639 44.3523L42.9184 41.8102L38.4855 44.3773L38.498 49.5115L42.9435 52.0536ZM34.1025 67.4548L38.5355 64.8877L38.523 59.7535L34.0775 57.2114L29.6445 59.7785L29.657 64.9127L34.1025 67.4548ZM69.579 51.9911L74.0119 49.424L78.4574 51.9661L78.4699 57.1003L74.037 59.6674L69.5915 57.1253L69.579 51.9911ZM51.7968 87.894L51.7967 87.894L47.3512 90.4486L47.3387 95.5828L51.7717 98.1499L56.2172 95.5953L56.2297 90.4736L55.8333 90.2429L56.2297 90.4726L60.6752 87.918L60.6878 82.7962L56.2548 80.2166L51.8093 82.7712L51.7968 87.894ZM47.389 75.07L42.956 72.4903L38.5105 75.0449L38.4855 80.1791L42.931 82.7463L47.3765 80.1917L47.389 75.07ZM82.8651 90.5361L82.4734 90.3093L82.8651 90.5372L82.8525 95.6714L78.407 98.2135L73.9741 95.6464L73.9866 90.5122L78.4321 87.9576L78.4322 87.9576L78.4447 82.8348L82.8902 80.2802L87.3231 82.8599L87.3106 87.9816L82.8651 90.5361ZM100.672 59.653L96.2388 57.0734L96.2513 51.9517L100.697 49.3971L105.13 51.9767V57.0984L100.672 59.653Z" fill="url(#paint2_linear_23379_4055)" name="Layer %{number}" zoom="1" data-layer-id="7186070207773" style="fill: rgb(250, 170, 22); fill-opacity: 1;"></path>
  <linearGradient id="paint0_linear_23379_4055" x1="78.5" y1="29" x2="61.1834" y2="135.604" gradientUnits="userSpaceOnUse" name="Layer %{number}" zoom="1" data-layer-id="0269343207773">
    <stop stop-color="#3CB6E3"></stop>
    <stop offset="1" stop-color="#8A4AEF"></stop>
  </linearGradient>
  <linearGradient id="paint1_linear_23379_4055" x1="73.6938" y1="44.4625" x2="64.4395" y2="111.337" gradientUnits="userSpaceOnUse" name="Layer %{number}" zoom="1" data-layer-id="3518554907773">
    <stop stop-color="#3CB6E3"></stop>
    <stop offset="1" stop-color="#8A4AEF"></stop>
  </linearGradient>
  <linearGradient id="paint2_linear_23379_4055" x1="78.4448" y1="53.4336" x2="73.8428" y2="97.0897" gradientUnits="userSpaceOnUse" name="Layer %{number}" zoom="1" data-layer-id="9862139207773">
    <stop stop-color="#3CB6E3"></stop>
    <stop offset="1" stop-color="#8A4AEF"></stop>
  </linearGradient>
</svg>